<svg xmlns="http://www.w3.org/2000/svg" x="0px" y="0px" width="480" height="480" viewBox="0 0 80 80">
<path fill="#c74343" d="M75.508,48.67c0-1.077-2.851-1.95-6.373-1.95c-3.064,0-5.614,0.661-6.227,1.54 c-6.063-2.864-12.129-5.729-18.192-8.595c-2.11-0.998-4.52-0.987-6.625,0.024c-6.456,3.106-12.911,6.212-19.367,9.318 c-1.461-0.213-3.224-0.34-5.127-0.34c-5.034,0.002-9.105,0.874-9.105,1.951v5.85c0,0.056,0.056,0.108,0.076,0.162 c-0.247,0.938,0.118,2.037,1.097,2.499c9.538,4.506,19.075,9.011,28.613,13.517c2.421,1.145,5.188,1.135,7.602-0.027 C52.773,67.38,63.665,62.14,74.56,56.898c0.818-0.394,1.101-1.329,0.861-2.109c0.039-0.09,0.088-0.178,0.088-0.271V48.67z"></path><path fill="#c74343" d="M38.051,73.999c-1.359,0-2.719-0.299-3.986-0.898L5.451,59.584 c-1.063-0.502-1.634-1.689-1.411-2.879c-0.025-0.06-0.048-0.14-0.048-0.234V50.62c0-1.932,6.038-2.45,9.605-2.451 c1.791,0,3.532,0.111,5.046,0.323l19.23-9.252c2.24-1.077,4.812-1.087,7.056-0.025l17.861,8.438 c1.127-0.986,3.901-1.433,6.345-1.433c3.31,0,6.872,0.767,6.872,2.45v5.849c0,0.12-0.028,0.225-0.061,0.31 c0.231,1.033-0.24,2.071-1.171,2.52l-32.68,15.723C40.813,73.69,39.432,73.999,38.051,73.999z M4.992,56.369l0.101,0.235 L5.052,56.76c-0.178,0.677,0.049,1.553,0.827,1.92l28.613,13.517c2.281,1.079,4.894,1.069,7.171-0.025l32.68-15.723 c0.608-0.294,0.763-0.982,0.6-1.511l-0.055-0.177l0.126-0.289l-0.006-5.801c0-0.434-1.998-1.45-5.872-1.45 c-3.063,0-5.362,0.675-5.817,1.327l-0.241,0.347l-18.575-8.775c-1.97-0.932-4.229-0.922-6.194,0.021l-19.505,9.385l-0.151-0.021 c-1.502-0.22-3.25-0.335-5.054-0.335c-5.308,0.002-8.425,0.957-8.607,1.469L4.992,56.369z"></path><path fill="#f78f8f" d="M34.277,65.312c-9.538-4.264-19.075-8.529-28.613-12.793c-1.559-0.697-1.566-2.92-0.012-3.629 c10.813-4.924,21.624-9.848,32.438-14.771c2.103-0.959,4.515-0.967,6.625-0.024c9.944,4.447,19.89,8.892,29.834,13.339 c1.275,0.57,1.282,2.391,0.01,2.969c-10.893,4.961-21.785,9.922-32.679,14.881C39.465,66.384,36.699,66.394,34.277,65.312z"></path><path fill="#c74343" d="M38.048,66.616c-1.355,0-2.711-0.283-3.975-0.849L5.461,52.975c-0.902-0.402-1.466-1.27-1.47-2.263 c-0.004-0.994,0.554-1.866,1.454-2.276l32.438-14.771c2.23-1.018,4.795-1.027,7.036-0.024l29.834,13.339 c0.771,0.345,1.253,1.086,1.256,1.936c0.002,0.85-0.474,1.595-1.243,1.944L42.087,65.74C40.805,66.324,39.426,66.615,38.048,66.616 z M41.429,33.895c-1.069,0-2.138,0.227-3.132,0.68L5.859,49.346c-0.546,0.249-0.87,0.758-0.868,1.362 c0.002,0.604,0.33,1.109,0.878,1.354l28.612,12.794c2.286,1.022,4.907,1.014,7.191-0.025l32.679-14.882 c0.413-0.188,0.658-0.573,0.657-1.03c-0.002-0.458-0.25-0.842-0.664-1.027L44.511,34.552C43.53,34.113,42.479,33.895,41.429,33.895 z"></path><path fill="#c74343" d="M75.508,35.169c0-1.077-2.851-1.95-6.373-1.95c-3.064,0-5.614,0.661-6.227,1.54 c-6.063-2.864-12.129-5.729-18.192-8.595c-2.11-0.998-4.52-0.987-6.625,0.024c-6.456,3.106-12.911,6.212-19.367,9.318 c-1.461-0.213-3.224-0.34-5.127-0.34c-5.034,0.002-9.105,0.876-9.105,1.953v5.85c0,0.056,0.056,0.108,0.076,0.162 c-0.247,0.938,0.118,2.037,1.097,2.499c9.538,4.506,19.075,9.011,28.613,13.517c2.421,1.145,5.188,1.135,7.602-0.027 C52.773,53.88,63.665,48.64,74.56,43.398c0.818-0.394,1.101-1.329,0.861-2.109c0.039-0.09,0.088-0.178,0.088-0.271V35.169z"></path><path fill="#c74343" d="M38.051,60.499c-1.359,0-2.719-0.299-3.986-0.898L5.451,46.084 c-1.063-0.502-1.634-1.689-1.411-2.879c-0.025-0.06-0.048-0.14-0.048-0.234V37.12c0-1.934,6.038-2.452,9.605-2.453 c1.791,0,3.532,0.111,5.046,0.323l19.23-9.252c2.242-1.077,4.813-1.087,7.056-0.025l17.861,8.438 c1.127-0.986,3.901-1.433,6.345-1.433c3.31,0,6.872,0.767,6.872,2.45v5.851c0,0.12-0.028,0.225-0.061,0.31 c0.231,1.033-0.24,2.071-1.171,2.52l-32.68,15.723C40.813,60.19,39.432,60.499,38.051,60.499z M4.992,42.869l0.101,0.235 L5.052,43.26c-0.178,0.677,0.049,1.553,0.827,1.92l28.613,13.517c2.281,1.079,4.894,1.069,7.171-0.025l32.68-15.723 c0.608-0.294,0.763-0.982,0.6-1.511l-0.055-0.177l0.126-0.289l-0.006-5.803c0-0.434-1.998-1.45-5.872-1.45 c-3.063,0-5.362,0.675-5.817,1.327l-0.241,0.347l-18.575-8.775c-1.968-0.932-4.227-0.923-6.194,0.022l-19.505,9.384l-0.151-0.021 c-1.502-0.22-3.25-0.335-5.054-0.335c-5.308,0.002-8.425,0.958-8.607,1.471L4.992,42.869z"></path><path fill="#f78f8f" d="M34.277,51.81c-9.538-4.264-19.075-8.529-28.613-12.793c-1.559-0.697-1.566-2.92-0.012-3.629 c10.813-4.924,21.624-9.848,32.438-14.771c2.103-0.959,4.515-0.967,6.625-0.024c9.944,4.447,19.89,8.892,29.834,13.339 c1.275,0.57,1.282,2.391,0.01,2.969c-10.893,4.961-21.785,9.922-32.679,14.881C39.465,52.884,36.699,52.894,34.277,51.81z"></path><path fill="#c74343" d="M38.047,53.115c-1.355,0-2.71-0.282-3.974-0.849L5.461,39.474c-0.903-0.403-1.466-1.271-1.47-2.265 s0.554-1.865,1.454-2.275l32.438-14.771c2.232-1.017,4.796-1.026,7.036-0.024l29.834,13.339c0.771,0.345,1.253,1.087,1.256,1.937 c0.002,0.849-0.474,1.594-1.243,1.944L42.087,52.238C40.805,52.823,39.426,53.115,38.047,53.115z M41.428,20.393 c-1.068,0-2.137,0.227-3.131,0.68L5.859,35.844c-0.546,0.249-0.87,0.758-0.868,1.362c0.002,0.604,0.33,1.11,0.878,1.355 l28.612,12.793c2.287,1.022,4.908,1.014,7.191-0.026l32.679-14.881c0.413-0.188,0.658-0.573,0.657-1.031 c-0.002-0.458-0.25-0.842-0.664-1.027L44.511,21.05C43.53,20.611,42.479,20.393,41.428,20.393z"></path><path fill="#c74343" d="M75.508,21.957c0-1.077-2.851-1.95-6.373-1.95c-3.064,0-5.614,0.661-6.227,1.54 c-6.063-2.864-12.129-5.729-18.192-8.595c-2.11-0.998-4.52-0.987-6.625,0.024c-6.456,3.106-12.911,6.212-19.367,9.318 c-1.461-0.213-3.224-0.34-5.127-0.34c-5.034,0.002-9.105,0.874-9.105,1.951v5.85c0,0.056,0.056,0.108,0.076,0.162 c-0.247,0.938,0.118,2.037,1.097,2.499c9.538,4.506,19.075,9.011,28.613,13.517c2.421,1.145,5.188,1.135,7.602-0.027 c10.893-5.242,21.785-10.482,32.679-15.723c0.818-0.394,1.101-1.329,0.861-2.109c0.039-0.09,0.088-0.178,0.088-0.271V21.957z"></path><path fill="#c74343" d="M38.051,47.286c-1.359,0-2.719-0.299-3.986-0.898L5.451,32.871 c-1.063-0.502-1.634-1.689-1.411-2.879c-0.025-0.06-0.048-0.14-0.048-0.234v-5.851c0-1.934,6.038-2.45,9.605-2.451 c1.798,0,3.538,0.111,5.046,0.323l19.23-9.252c2.238-1.078,4.81-1.087,7.056-0.026l17.862,8.438c1.126-0.986,3.9-1.432,6.344-1.432 c3.31,0,6.872,0.767,6.872,2.449v5.849c0,0.12-0.028,0.225-0.061,0.311c0.231,1.033-0.24,2.071-1.171,2.52l-32.68,15.723 C40.813,46.978,39.432,47.286,38.051,47.286z M4.992,29.656l0.101,0.237l-0.041,0.153c-0.178,0.677,0.049,1.553,0.827,1.92 l28.613,13.517c2.281,1.078,4.894,1.07,7.171-0.025l32.68-15.723c0.608-0.294,0.762-0.983,0.6-1.512l-0.055-0.179l0.126-0.286 l-0.006-5.802c0-0.434-1.998-1.449-5.872-1.449c-3.063,0-5.362,0.674-5.817,1.326l-0.242,0.347l-18.574-8.775 c-1.97-0.932-4.229-0.923-6.194,0.022l-19.505,9.385l-0.151-0.021c-1.495-0.22-3.243-0.335-5.054-0.335 c-5.308,0.001-8.425,0.956-8.607,1.469L4.992,29.656z"></path><path fill="#f78f8f" d="M34.277,38.599c-9.538-4.264-19.075-8.529-28.613-12.793c-1.559-0.697-1.566-2.92-0.012-3.629 C16.466,17.253,27.277,12.33,38.09,7.406c2.103-0.959,4.515-0.967,6.625-0.024c9.944,4.447,19.89,8.892,29.834,13.339 c1.275,0.57,1.282,2.391,0.01,2.969c-10.893,4.961-21.785,9.922-32.679,14.881C39.465,39.673,36.699,39.681,34.277,38.599z"></path><path fill="#c74343" d="M38.05,39.903c-1.355,0-2.711-0.282-3.977-0.849L5.461,26.262c-0.902-0.402-1.466-1.27-1.47-2.262 c-0.004-0.994,0.553-1.867,1.453-2.278L37.883,6.951c2.23-1.017,4.796-1.028,7.036-0.025l29.834,13.34 c0.771,0.345,1.253,1.086,1.256,1.936c0.002,0.85-0.474,1.595-1.243,1.944L42.087,39.027C40.806,39.611,39.429,39.903,38.05,39.903 z M34.481,38.143c2.291,1.022,4.91,1.014,7.191-0.025l32.679-14.882c0.413-0.188,0.658-0.573,0.657-1.03 c-0.002-0.458-0.25-0.842-0.664-1.027L44.511,7.838c-1.979-0.883-4.243-0.874-6.214,0.023L5.859,22.632 c-0.546,0.249-0.871,0.759-0.868,1.363c0.003,0.604,0.331,1.109,0.878,1.354L34.481,38.143z"></path><g><path fill="#fff" d="M30.178,23.15c-0.003,1.575-4.174,3.108-7.696,3.152c-3.655,0.045-7.968-1.501-7.982-3.099 c-0.014-1.603,4.295-3.265,8.025-3.226C26.051,20.013,30.182,21.581,30.178,23.15z"></path><path fill="#c74343" d="M22.319,26.803c-3.005,0-6.35-0.994-7.677-2.294c-0.423-0.414-0.639-0.852-0.643-1.302 c-0.004-0.458,0.213-0.908,0.644-1.339c1.355-1.353,4.738-2.393,7.751-2.393c0.046,0,0.091,0.001,0.136,0.001 c3.248,0.033,8.154,1.516,8.147,3.675c-0.005,2.166-4.854,3.608-8.19,3.65C22.432,26.803,22.375,26.803,22.319,26.803z M22.394,20.476c-2.961,0-6.017,1.076-7.043,2.101c-0.161,0.16-0.353,0.398-0.351,0.623c0.002,0.217,0.188,0.443,0.343,0.596 c1.146,1.122,4.404,2.074,7.133,2.007c3.57-0.045,7.2-1.581,7.202-2.653v-0.001c0.003-0.977-3.463-2.633-7.157-2.671 C22.479,20.477,22.436,20.476,22.394,20.476z"></path></g><g><path fill="#fff" d="M26.12,29.798c4.254,1.817,8.506,3.635,12.76,5.452c1.874-2.773,3.747-5.546,5.621-8.319 C38.373,27.887,32.247,28.844,26.12,29.798z"></path><path fill="#c74343" d="M42.386,28.273l-1.044,1.545l-2.829,4.188L32.9,31.608l-3.18-1.359L42.386,28.273 M44.5,26.931 c-6.127,0.956-12.253,1.913-18.38,2.867c4.254,1.817,8.506,3.635,12.76,5.452C40.753,32.477,42.626,29.704,44.5,26.931L44.5,26.931 z"></path></g><g><path fill="#fff" d="M36.372,14.754c-1.862,0.678-3.725,1.354-5.587,2.032c2.548,0.223,5.098,0.446,7.646,0.668 c0.812,1.346,1.622,2.692,2.433,4.036c0.499-1.221,0.998-2.442,1.496-3.662c2.174-0.169,4.349-0.338,6.523-0.507 c-1.686-0.708-3.372-1.419-5.057-2.129c0.429-1.028,0.859-2.056,1.288-3.086c-1.64,0.49-3.279,0.981-4.919,1.471 c-1.809-0.714-3.618-1.425-5.428-2.139C35.304,12.544,35.838,13.65,36.372,14.754z"></path><path fill="#c74343" d="M36.783,13.307l0.304,0.12l2.743,1.081l0.322,0.127l0.331-0.099l2.476-0.741l0.42-0.126 l-0.475,1.137l-0.384,0.92l0.919,0.387l1.259,0.53l-2.414,0.188l-0.615,0.048l-0.233,0.571l-0.743,1.818l-0.479-0.795l-0.925-1.535 l-0.263-0.436l-0.507-0.044l-3.149-0.275l1.345-0.489l1.04-0.379l-0.482-0.996L36.783,13.307 M34.769,11.439 c0.534,1.106,1.069,2.212,1.603,3.316c-1.862,0.678-3.725,1.354-5.587,2.032c2.548,0.223,5.098,0.446,7.646,0.668 c0.812,1.346,1.622,2.692,2.433,4.036c0.499-1.221,0.998-2.442,1.496-3.662c2.174-0.169,4.349-0.338,6.523-0.507 c-1.686-0.708-3.372-1.419-5.057-2.129c0.43-1.028,0.859-2.056,1.288-3.086c-1.64,0.49-3.279,0.981-4.919,1.471 C38.388,12.864,36.578,12.152,34.769,11.439L34.769,11.439z"></path></g><g><path fill="#f78f8f" d="M45.515,22.945c3.84-1.532,7.682-3.066,11.522-4.597c3.317,1.41,6.635,2.82,9.952,4.231 c-3.723,1.481-7.445,2.962-11.168,4.445C52.386,25.662,48.95,24.304,45.515,22.945z"></path><path fill="#c74343" d="M55.82,27.562l-11.66-4.614l12.882-5.141l11.26,4.787L55.82,27.562z M46.869,22.943l8.95,3.542 l9.854-3.923l-8.644-3.674L46.869,22.943z"></path></g><path fill="#c74343" d="M56.776,18.454c-0.009,2.699-0.017,5.396-0.026,8.094c3.413-1.324,6.827-2.646,10.24-3.97	C63.586,21.203,60.181,19.829,56.776,18.454z"></path>
</svg>